# xmcd
#
# Track frame offsets:
#	150
#	17403
#	33509
#	51254
#	69992
#	86884
#	103645
#	119335
#	138077
#	159796
#
# Disc length: 2269 seconds
#
# Revision: 1
# Processed by: cddbd v1.5.2PL0 Copyright (c) Steve Scherf et al.
# Submitted via: audiograbber 1.83.01
#
DISCID=7708db0a
DTITLE=Juice Newton - Dirty looks
DYEAR=2011
DGENRE=Country
TTITLE0=Dirty looks
TTITLE1=Tell her no
TTITLE2=Til i loved you
TTITLE3=Keeping me on my toes
TTITLE4=Twenty years ago
TTITLE5=Don't bother me
TTITLE6=Stranger at my door
TTITLE7=Slipping away
TTITLE8=Runaway hearts
TTITLE9=For believers
EXTD=
EXTT0=
EXTT1=
EXTT2=
EXTT3=
EXTT4=
EXTT5=
EXTT6=
EXTT7=
EXTT8=
EXTT9=
PLAYORDER=
